<?xml version="1.0" standalone="no"?>
<!DOCTYPE svg PUBLIC "-//W3C//DTD SVG 20010904//EN"
 "http://www.w3.org/TR/2001/REC-SVG-20010904/DTD/svg10.dtd">
<svg version="1.0" xmlns="http://www.w3.org/2000/svg"
 width="2048.000000pt" height="2048.000000pt" viewBox="0 0 2048.000000 2048.000000"
 preserveAspectRatio="xMidYMid meet">

<g transform="translate(0.000000,2048.000000) scale(0.100000,-0.100000)"
fill="#000000" stroke="none">
<path d="M6965 20359 c-430 -25 -638 -52 -1095 -145 -196 -40 -248 -52 -400
-94 -63 -17 -142 -38 -175 -46 -154 -39 -557 -184 -880 -316 -137 -56 -534
-250 -680 -333 -412 -232 -824 -515 -999 -684 -159 -154 -254 -307 -312 -501
-27 -89 -29 -106 -29 -275 0 -168 2 -186 28 -275 57 -190 155 -350 298 -485
170 -161 364 -248 611 -277 250 -28 540 56 763 221 137 102 505 345 625 413
224 128 382 203 650 309 321 128 479 179 818 264 86 21 320 61 472 80 69 8
154 20 190 25 36 6 182 13 325 16 584 14 1054 -63 1474 -243 134 -57 163 -72
286 -146 319 -191 532 -429 634 -705 58 -155 76 -268 76 -462 0 -188 -17 -303
-69 -478 -81 -270 -251 -592 -445 -842 -328 -424 -735 -774 -1291 -1110 -99
-61 -419 -226 -505 -262 -446 -186 -693 -270 -995 -339 -25 -6 -81 -19 -125
-29 -44 -11 -100 -22 -125 -25 -25 -3 -67 -12 -95 -20 -27 -7 -95 -26 -150
-40 -392 -106 -685 -430 -750 -830 -75 -460 144 -894 556 -1101 207 -104 419
-134 690 -99 213 28 516 95 770 171 68 20 160 47 204 60 394 114 942 343 1361
569 155 84 510 298 619 373 415 288 683 510 1020 847 683 681 1165 1517 1343
2325 53 240 63 294 79 430 25 202 25 612 0 805 -17 135 -24 172 -83 430 -73
321 -216 657 -411 961 -154 241 -296 417 -504 621 -176 173 -417 366 -624 500
-219 141 -545 302 -845 417 -280 107 -777 236 -1005 261 -33 4 -96 13 -140 21
-78 13 -225 26 -515 44 -170 11 -447 10 -645 -1z"/>
<path d="M13480 19429 c-452 -58 -787 -416 -807 -861 -7 -137 6 -235 47 -355
45 -136 102 -225 220 -344 92 -92 118 -112 206 -157 55 -28 141 -63 190 -78
81 -25 103 -28 249 -28 145 0 168 3 248 27 316 97 529 309 632 627 37 114 46
305 20 431 -39 196 -123 347 -272 490 -148 141 -295 211 -513 244 -104 16
-123 17 -220 4z"/>
<path d="M15095 17819 c-340 -44 -637 -252 -794 -559 -183 -357 -155 -737 82
-1090 55 -83 66 -96 248 -320 481 -593 1017 -1359 1406 -2009 520 -868 936
-1798 1192 -2668 63 -213 140 -539 166 -703 57 -358 74 -492 90 -740 17 -255
18 -397 5 -620 -37 -611 -158 -1083 -401 -1565 -325 -647 -806 -1143 -1539
-1585 -409 -247 -953 -467 -1581 -639 -216 -59 -392 -96 -789 -166 -414 -73
-601 -150 -794 -326 -80 -73 -173 -200 -222 -304 -247 -525 -24 -1149 497
-1389 153 -70 279 -96 474 -96 142 0 247 11 395 40 52 10 158 30 235 45 303
57 629 132 785 180 25 7 119 34 210 59 265 73 591 188 930 326 391 159 898
428 1250 663 367 246 662 487 965 791 302 303 496 536 713 859 674 1001 1006
2196 979 3522 -10 464 -40 769 -126 1265 -57 329 -131 653 -216 935 -91 304
-111 369 -157 505 -28 80 -58 170 -68 200 -10 30 -39 109 -64 175 -26 66 -63
163 -83 215 -19 52 -76 187 -125 300 -50 113 -113 257 -141 320 -224 513 -645
1281 -1060 1935 -111 176 -294 447 -497 740 -225 325 -782 1052 -979 1279
-223 258 -453 390 -736 425 -102 12 -150 12 -250 0z"/>
<path d="M7128 17490 c-75 -10 -142 -21 -149 -25 -6 -4 -48 -13 -93 -20 -208
-34 -580 -115 -801 -175 -60 -17 -135 -37 -165 -44 -94 -23 -297 -85 -480
-146 -203 -68 -270 -93 -560 -207 -415 -163 -1023 -490 -1369 -736 -382 -272
-556 -414 -800 -652 -235 -229 -358 -365 -533 -584 -419 -524 -774 -1196 -962
-1821 -14 -47 -33 -110 -42 -140 -29 -98 -81 -312 -103 -425 -12 -60 -28 -141
-36 -180 -8 -38 -17 -92 -20 -120 -4 -27 -13 -86 -20 -130 -21 -120 -43 -380
-55 -655 -12 -247 -4 -561 20 -900 10 -141 67 -597 76 -611 2 -4 11 -52 19
-106 40 -279 124 -651 212 -948 20 -66 42 -142 49 -170 34 -127 184 -580 239
-721 14 -35 36 -92 49 -126 51 -132 137 -351 146 -367 15 -29 56 -121 156
-346 130 -295 254 -544 494 -990 350 -648 867 -1449 1387 -2145 219 -293 485
-635 620 -797 284 -340 552 -483 903 -483 132 0 224 13 321 45 391 130 681
488 719 888 24 266 -41 500 -205 739 -32 46 -144 191 -249 323 -719 897 -1235
1671 -1741 2610 -194 359 -474 973 -597 1310 -22 61 -51 139 -65 175 -34 91
-34 92 -107 320 -99 312 -116 370 -116 389 0 10 -7 38 -16 62 -8 24 -21 73
-28 109 -8 36 -21 94 -29 130 -47 198 -75 367 -121 730 -36 280 -44 785 -16
1050 17 155 51 404 61 442 5 20 16 69 23 110 83 434 349 1005 653 1406 341
448 862 867 1453 1170 348 178 643 293 1100 430 293 88 461 131 605 157 39 7
106 19 150 28 44 8 150 27 235 42 461 79 645 160 851 372 166 170 256 366 281
610 50 485 -238 929 -707 1090 -158 54 -387 66 -637 33z"/>
<path d="M14288 9028 c-187 -14 -524 -83 -839 -174 -1035 -296 -1938 -757
-2699 -1378 -287 -234 -642 -577 -829 -801 -301 -361 -549 -740 -727 -1110
-230 -481 -367 -984 -405 -1490 -44 -595 89 -1250 360 -1770 354 -678 923
-1222 1667 -1593 558 -279 1158 -443 1866 -509 326 -30 976 -21 1298 18 433
52 869 140 1261 254 499 145 1129 407 1564 651 367 205 821 515 985 671 214
203 324 418 350 683 32 312 -70 597 -294 828 -182 188 -414 293 -678 309 -255
15 -494 -59 -723 -222 -203 -145 -508 -346 -637 -418 -510 -288 -1153 -521
-1685 -612 -577 -97 -1008 -107 -1526 -35 -155 22 -426 91 -576 146 -154 58
-386 175 -521 265 -257 171 -457 416 -543 669 -113 329 -90 704 68 1098 139
348 358 671 680 1001 289 296 591 530 1010 780 432 259 1076 506 1615 620 318
68 428 99 531 148 339 163 549 461 589 838 38 347 -117 708 -392 918 -222 168
-470 238 -770 215z"/>
<path d="M6807 2940 c-91 -16 -192 -52 -292 -103 -88 -44 -114 -64 -211 -161
-97 -97 -116 -123 -161 -211 -28 -55 -63 -138 -79 -185 -26 -79 -28 -97 -28
-250 0 -159 1 -169 32 -261 63 -190 156 -331 293 -445 177 -149 402 -223 639
-211 140 7 242 35 380 104 105 52 124 66 220 163 96 96 111 116 163 220 82
164 100 240 101 425 1 181 -18 267 -93 420 -112 228 -314 394 -571 471 -67 20
-113 26 -215 29 -71 2 -152 0 -178 -5z"/>
</g>
</svg>
